<?xml version="1.0" encoding="utf-8"?>
<!-- Generator: Adobe Illustrator 23.0.3, SVG Export Plug-In . SVG Version: 6.00 Build 0)  -->
<svg version="1.1" id="Layer_2" xmlns="http://www.w3.org/2000/svg" xmlns:xlink="http://www.w3.org/1999/xlink" x="0px" y="0px"
	 viewBox="0 0 700.8 84.7" style="enable-background:new 0 0 700.8 84.7;" xml:space="preserve">
<style type="text/css">
	.st0{fill:#FFD042;}
	.st1{fill:#FD4F00;}
	.st2{fill-rule:evenodd;clip-rule:evenodd;fill:#FD4F00;}
</style>
<g>
	<path class="st0" d="M437.2,42c0-4.9-4-8.9-8.9-8.9s-8.9,4-8.9,8.9s4,8.9,8.9,8.9S437.2,46.9,437.2,42z"/>
	<g>
		<path class="st1" d="M556.9,53.3h-4.5c-0.5,0-0.8-0.2-1.1-0.5s-0.5-0.7-0.5-1.2v-47c0-0.6-0.2-1.1-0.6-1.5s-0.9-0.6-1.5-0.6h-8.3
			c-0.6,0-1.2,0.2-1.6,0.6c-0.4,0.4-0.6,0.9-0.6,1.5v48c0,0,0,0,0,0.1c0.1,9,3.9,13.4,11.5,13.4h6.4c1.8,0,2.6-0.8,2.6-2.5v-8.4
			C558.7,54,558.1,53.3,556.9,53.3z"/>
		<path class="st2" d="M519.1,47.6L519.1,47.6c-0.1,0.2-0.1,0.3-0.2,0.3c0,0.1-0.1,0.1-0.1,0.2c-0.5,1-1.2,2-2.1,2.8
			c-2.4,2.5-5.4,3.7-8.9,3.7l0,0l0,0c-3.5,0-6.5-1.2-8.9-3.7s-3.7-5.5-3.7-9.1c0-3.4,1.2-6.3,3.7-8.8s5.5-3.7,8.9-3.7l0,0l0,0
			c3.4,0,6.4,1.2,8.9,3.7c1,1,1.8,2,2.4,3.2v0.1c0.8,1.7,1.3,3.5,1.3,5.6C520.4,44,520,45.9,519.1,47.6z M531.2,20
			c-0.4-0.4-0.9-0.6-1.5-0.6h-8.3c-0.6,0-1.2,0.2-1.6,0.6c-0.4,0.4-0.6,0.9-0.6,1.5v1.4V23c0,0-4.2-4.7-14-5.1V18
			c-0.4,0-0.7-0.1-1.1-0.1c-5.4,0-10.3,1.9-14.5,5.8c-5,4.5-7.4,10.6-7.4,18.2c0,6.7,1.9,12.3,5.8,16.7c4.4,5,9.9,7.5,16.4,7.5
			c0.3,0,0.5,0,0.8,0l0,0c0,0,6.9,0,14-4.2v0.4c0,0.6,0.2,1.1,0.7,1.6c0.4,0.4,1,0.7,1.6,0.7h8.3c0.6,0,1.1-0.2,1.5-0.7
			c0.4-0.4,0.6-1,0.6-1.6v-4.6V23v-1.5C531.8,20.9,531.6,20.4,531.2,20z"/>
		<path class="st1" d="M476.4,21.4c-0.4-0.4-0.9-0.6-1.5-0.6h-8.6V4.6c0-0.6-0.2-1.1-0.6-1.5s-0.9-0.6-1.5-0.6h-8.3
			c-0.6,0-1.2,0.2-1.6,0.6c-0.4,0.4-0.6,0.9-0.6,1.5v16.2l0,0h-2.6c-0.6,0-1.1,0.2-1.6,0.7s-0.7,1-0.7,1.6v6.6
			c0,0.6,0.2,1.1,0.7,1.5c0.4,0.4,1,0.6,1.6,0.6h2.6l0,0v20.8c0,0,0,0,0,0.1c0.1,9,3.9,13.4,11.5,13.4h6.4c1.8,0,2.6-0.8,2.6-2.5
			v-8.4c0-1.2-0.6-1.8-1.8-1.8h-4.5c-0.5,0-0.8-0.2-1.1-0.5s-0.4-0.7-0.4-1.2v-20h8.5c0.6,0,1.1-0.2,1.5-0.6s0.6-0.9,0.6-1.5V23
			C477,22.4,476.8,21.8,476.4,21.4z"/>
		<path class="st1" d="M700.1,21.4c-0.4-0.4-0.9-0.6-1.5-0.6h-8.5V4.6c0-0.6-0.2-1.1-0.6-1.5s-0.9-0.6-1.5-0.6h-8.3
			c-0.6,0-1.2,0.2-1.6,0.6c-0.4,0.4-0.6,0.9-0.6,1.5v16.2l0,0h-2.6c-0.6,0-1.1,0.2-1.6,0.7s-0.7,1-0.7,1.6v6.6
			c0,0.6,0.2,1.1,0.7,1.5c0.4,0.4,1,0.6,1.6,0.6h2.6l0,0v20.8c0,0,0,0,0,0.1c0.1,9,3.9,13.4,11.5,13.4h6.4c1.8,0,2.6-0.8,2.6-2.5
			v-8.4c0-1.2-0.6-1.8-1.8-1.8h-4.5c-0.5,0-0.8-0.2-1.1-0.5s-0.4-0.7-0.4-1.2v-20h8.5c0.6,0,1.1-0.2,1.5-0.6s0.6-0.9,0.6-1.5V23
			C700.7,22.4,700.5,21.8,700.1,21.4z"/>
		<path class="st1" d="M578,44c0.1,3.8,1.1,6.8,3,8.9c2,2.2,4.7,3.3,8.1,3.3c4.3,0,7.6-1.7,9.9-5c0.4-0.6,1-0.9,1.7-0.9
			c0.1,0,0.7,0.1,1.8,0.3l4.6,0.8c1.3,0.2,2.1,0.5,2.5,0.8s0.7,0.8,0.7,1.5c0,0.6-0.4,1.5-1.1,2.7c-0.7,1.2-1.6,2.2-2.5,3.2
			c-4.5,4.4-10.3,6.6-17.5,6.6c-4.5,0-8.6-1-12.4-2.9c-4.5-2.3-7.8-5.7-9.7-10.3c-1.4-3.2-2.1-6.8-2.1-10.8c0-4.7,1-9,3.1-12.9
			c2-3.9,4.9-6.7,8.8-8.6c3.5-1.7,7.5-2.6,11.8-2.6c6.7,0,12.1,1.9,16.2,5.7c2.1,1.9,3.8,4.5,5,7.6c1.3,3.2,1.9,6.4,1.9,9.7
			c0,1.3-0.2,2.2-0.6,2.5c-0.4,0.4-1.4,0.6-3,0.6L578,44L578,44z M598.7,36c-0.5-2.3-1.3-4.1-2.4-5.3c-2.1-2.5-4.9-3.7-8.4-3.7
			c-2.7,0-5.1,0.8-6.9,2.4c-1.9,1.6-3.1,3.8-3.6,6.7L598.7,36L598.7,36z"/>
		<path class="st1" d="M643.9,17.3h-3.5c-12.5,0-22.6,10.1-22.6,22.6v23c0,1.7,1.4,3.1,3.1,3.1h8.4c1.7,0,3.1-1.4,3.1-3.1V38.1
			c0-5.3,4.3-9.7,9.7-9.7l0,0c5.3,0,9.7,4.3,9.7,9.7v24.8c0,1.7,1.4,3.1,3.1,3.1h8.7c1.7,0,3.1-1.4,3.1-3.1v-23
			C666.5,27.5,656.4,17.3,643.9,17.3z"/>
	</g>
	<g>
		<path class="st1" d="M152.4,52h-4.5c-0.5,0-0.8-0.2-1.1-0.5s-0.5-0.7-0.5-1.2V3.2c0-0.6-0.2-1.1-0.6-1.5c-0.4-0.4-0.9-0.6-1.5-0.6
			h-8.3c-0.6,0-1.2,0.2-1.6,0.6c-0.4,0.4-0.6,0.9-0.6,1.5v48c0,0,0,0,0,0.1c0.1,9,3.9,13.4,11.5,13.4h6.4c1.8,0,2.6-0.8,2.6-2.5
			v-8.4C154.2,52.6,153.6,52,152.4,52z"/>
		<path class="st1" d="M125.8,20.4c-0.1-0.1-0.1-0.2-0.2-0.3c-0.1-0.1-0.2-0.2-0.4-0.2c-0.3-0.2-0.7-0.4-1.2-0.4h-1.4h-5.5h-1.4
			c-0.6,0-1.2,0.2-1.6,0.6c-0.4,0.4-0.6,0.9-0.6,1.5v22.6c-0.1,3.1-0.8,5.4-2.3,7c-1.5,1.7-3.9,2.6-6.9,2.6c-3.4,0-6-1.2-7.6-3.6
			c-0.9-1.4-1.4-3.3-1.5-5.8V21.7c0-0.6-0.2-1.1-0.6-1.5c-0.4-0.4-0.9-0.6-1.5-0.6h-1.5h-5.4h-1.3c-0.4,0-0.8,0.1-1.1,0.3
			c-0.2,0.1-0.4,0.2-0.5,0.3s-0.2,0.3-0.3,0.4c-0.2,0.3-0.3,0.7-0.3,1.1v1.5v22.6v0.4c0,0,0,0,0,0.1l0,0c0,17.6,14.6,18.5,20.6,18.5
			c0.2,0,0.5,0,0.7,0s0.4,0,0.6,0c3.5,0,6.4-1.1,9-2.6c0.1-0.1,0.2-0.1,0.2-0.1l0,0l0,0l0,0v0.4c0,0.6,0.2,1.1,0.7,1.6
			c0.4,0.4,1,0.7,1.6,0.7h8.3c0.6,0,1.1-0.2,1.5-0.7c0.4-0.4,0.6-1,0.6-1.6V45.7V23.1v-1.5C126.2,21.2,126.1,20.8,125.8,20.4z"/>
		<path class="st1" d="M282.2,53.3h-4.5c-0.5,0-0.8-0.2-1.1-0.5c-0.3-0.3-0.4-0.7-0.4-1.2v-47c0-0.6-0.2-1.1-0.6-1.5
			s-0.9-0.6-1.5-0.6h-8.3c-0.6,0-1.2,0.2-1.6,0.6c-0.4,0.4-0.6,0.9-0.6,1.5v48c0,0,0,0,0,0.1c0.1,9,3.9,13.4,11.5,13.4h6.4
			c1.8,0,2.6-0.8,2.6-2.5v-8.4C284,54,283.4,53.3,282.2,53.3z"/>
		<path class="st1" d="M353.7,51.9c-0.2-0.6-0.6-1.2-1.2-1.7l-5.3-3.7c-0.7-0.4-1.3-0.6-2-0.6c-1,0-2.1,0.7-3.2,2.3
			c-2.8,3.9-6.2,5.8-10.2,5.8c-3.4,0-6.3-1.2-8.6-3.5c-2.3-2.3-3.5-5.2-3.5-8.5s1.2-6.2,3.5-8.6s5.2-3.6,8.6-3.6c4,0,7.4,2,10.2,5.9
			c1.1,1.5,2.1,2.3,3.2,2.3c0.7,0,1.4-0.3,2-0.6l5.7-4c0.4-0.4,0.7-0.8,0.9-1.3c0.4-0.9,0-2.2-1-3.8c-4.5-6.3-11.9-10.5-20.4-10.5
			c-13.7,0-24.8,10.8-24.8,24.2s11.1,24.2,24.8,24.2c8.7,0,16.4-4.4,20.8-11C353.7,53.7,354,52.7,353.7,51.9z"/>
		<path class="st2" d="M395.2,47.6L395.2,47.6c-0.1,0.2-0.1,0.3-0.2,0.3c0,0.1-0.1,0.1-0.1,0.2c-0.5,1-1.2,2-2.1,2.8
			c-2.4,2.5-5.4,3.7-8.9,3.7l0,0l0,0c-3.5,0-6.5-1.2-8.9-3.7s-3.7-5.5-3.7-9.1c0-3.4,1.2-6.3,3.7-8.8s5.5-3.7,8.9-3.7l0,0l0,0
			c3.4,0,6.4,1.2,8.9,3.7c1,1,1.8,2,2.4,3.2v0.1c0.8,1.7,1.3,3.5,1.3,5.6C396.5,44,396.1,45.9,395.2,47.6z M407.3,20
			c-0.4-0.4-0.9-0.6-1.5-0.6h-8.3c-0.6,0-1.2,0.2-1.6,0.6c-0.4,0.4-0.6,0.9-0.6,1.5v1.4V23c0,0-4.2-4.7-14-5.1V18
			c-0.4,0-0.7-0.1-1.1-0.1c-5.4,0-10.3,1.9-14.5,5.8c-5,4.5-7.4,10.6-7.4,18.2c0,6.7,1.9,12.3,5.8,16.7c4.4,5,9.9,7.5,16.4,7.5
			c0.3,0,0.5,0,0.8,0l0,0c0,0,6.9,0,14-4.2v0.4c0,0.6,0.2,1.1,0.7,1.6c0.4,0.4,1,0.7,1.6,0.7h8.3c0.6,0,1.1-0.2,1.5-0.7
			c0.4-0.4,0.6-1,0.6-1.6v-4.6V23v-1.5C407.9,20.9,407.7,20.4,407.3,20z"/>
		<path class="st2" d="M241.4,50.9c-2.4,2.5-5.4,3.7-8.9,3.7s-6.5-1.2-8.9-3.7c-0.5-0.5-0.9-1-1.3-1.5c0-0.1-0.1-0.1-0.1-0.2
			c-1.5-2.1-2.3-4.6-2.3-7.4c0-2.7,0.8-5.1,2.3-7.1c0-0.1,0.1-0.1,0.1-0.2c0.4-0.5,0.8-1,1.3-1.5c2.5-2.5,5.5-3.7,8.9-3.7
			c3.5,0,6.5,1.2,8.9,3.7c2.5,2.4,3.7,5.4,3.7,8.9C245.2,45.5,243.9,48.4,241.4,50.9z M250.8,23.7c-4.2-3.8-9.1-5.8-14.5-5.8
			c-0.4,0-0.8,0-1.2,0.1l0.1-0.1c-8.8,0.3-13.1,4.2-13.9,5c0-0.3,0-0.5,0-0.8v-0.6c0-0.6-0.2-1.1-0.6-1.5s-0.9-0.6-1.5-0.6h-1.4
			h-5.4H211c-0.4,0-0.8,0.1-1.2,0.3c-0.2,0.1-0.3,0.2-0.4,0.3l-0.1,0.1c-0.4,0.4-0.5,0.8-0.5,1.4v60.9c0,0.6,0.2,1.1,0.7,1.6
			s1,0.7,1.6,0.7h8.3c0.6,0,1.1-0.2,1.5-0.7c0.4-0.4,0.6-1,0.6-1.6V61.9c0,0,0,0,0-0.1c1.7,1.1,3.4,1.9,5,2.5l0,0
			c0,0,7.8,3.5,16.5,0.7c0.3-0.1,0.5-0.2,0.8-0.3c0.4-0.1,0.7-0.3,1.1-0.4c0.3-0.1,0.6-0.3,1-0.4c0.2-0.1,0.4-0.2,0.6-0.3l0,0
			c2.3-1.2,4.4-2.9,6.4-5.1c3.8-4.4,5.7-9.9,5.7-16.7C258.2,34.3,255.8,28.2,250.8,23.7z"/>
		<path class="st1" d="M182,20c-0.4-0.4-0.9-0.6-1.5-0.6H172V3.2c0-0.6-0.2-1.1-0.6-1.5c-0.4-0.4-0.9-0.6-1.5-0.6h-8.3
			c-0.6,0-1.2,0.2-1.6,0.6c-0.4,0.4-0.6,0.9-0.6,1.5v16.2l0,0h-2.6c-0.6,0-1.1,0.2-1.6,0.7c-0.4,0.4-0.7,1-0.7,1.6v6.6
			c0,0.6,0.2,1.1,0.7,1.5c0.4,0.4,1,0.6,1.6,0.6h2.6l0,0v20.8c0,0,0,0,0,0.1c0.1,9,3.9,13.4,11.5,13.4h6.4c1.8,0,2.6-0.8,2.6-2.5
			v-8.4c0-1.2-0.6-1.8-1.8-1.8h-4.5c-0.5,0-0.8-0.2-1.1-0.5s-0.4-0.7-0.4-1.2v-20h8.5c0.6,0,1.1-0.2,1.5-0.6s0.6-0.9,0.6-1.5v-6.6
			C182.7,21,182.4,20.5,182,20z"/>
		<path class="st2" d="M31.1,36.6v25.9c0,1.3,1,2.3,2.3,2.3h7.9c1.3,0,2.3-1,2.3-2.3V36.6V22.3c0-5.1,4.2-9.3,9.3-9.3
			c5.1,0,9.3,4.2,9.3,9.3v40.2c0,1.3,1,2.3,2.3,2.3h7.9c1.3,0,2.3-1,2.3-2.3V22.3c0-12.1-9.8-21.8-21.8-21.8
			C42.6,0.5,34,7.6,31.7,17.2c-3-1.5-6.3-2.4-9.9-2.4C9.7,14.8,0,24.6,0,36.6v25.9c0,1.3,1,2.3,2.3,2.3h7.9c1.3,0,2.3-1,2.3-2.3
			V36.6c0-5.1,4.2-9.3,9.3-9.3C26.9,27.3,31.1,31.4,31.1,36.6z"/>
		<path class="st2" d="M188.5,62.5V22.4c0-0.6,0.2-1.1,0.6-1.5c0.4-0.4,0.9-0.6,1.6-0.6h8.1c0.6,0,1.1,0.2,1.5,0.6
			c0.4,0.4,0.6,0.9,0.6,1.5v40.1c0,0.6-0.2,1.1-0.6,1.5c-0.4,0.4-0.9,0.7-1.5,0.7h-8.1c-0.6,0-1.1-0.2-1.5-0.7
			C188.7,63.6,188.5,63.1,188.5,62.5z"/>
		<path class="st1" d="M202.2,9c0,4.1-3.3,7.4-7.4,7.4s-7.4-3.3-7.4-7.4c0-4.1,3.3-7.4,7.4-7.4C198.9,1.6,202.2,4.9,202.2,9z"/>
		<path class="st2" d="M289.7,63.8V23.7c0-0.6,0.2-1.1,0.6-1.5s0.9-0.6,1.6-0.6h8.1c0.6,0,1.1,0.2,1.5,0.6c0.4,0.4,0.6,0.9,0.6,1.5
			v40.1c0,0.6-0.2,1.1-0.6,1.5S300.6,66,300,66h-8.1c-0.6,0-1.1-0.2-1.5-0.7C289.9,65,289.7,64.4,289.7,63.8z"/>
		<path class="st1" d="M303.3,10.4c0,4.1-3.3,7.4-7.4,7.4s-7.4-3.3-7.4-7.4c0-4.1,3.3-7.4,7.4-7.4C300,3,303.3,6.3,303.3,10.4z"/>
	</g>
</g>
</svg>
