<svg width="53" height="31" viewBox="0 0 53 31" fill="none" xmlns="http://www.w3.org/2000/svg">
<path fill-rule="evenodd" clip-rule="evenodd" d="M28.2555 2.25695C28.6784 1.12048 29.933 0.531382 31.0776 0.931832C32.2545 1.34359 32.8639 2.64144 32.4291 3.81L23.4667 27.8948C23.0438 29.0312 21.7892 29.6203 20.6446 29.2199C19.4677 28.8081 18.8583 27.5103 19.2931 26.3417L28.2555 2.25695Z" fill="#7FCF99"/>
<path fill-rule="evenodd" clip-rule="evenodd" d="M15.3206 27.8644C16.2297 26.9836 16.2297 25.5253 15.3205 24.6445L5.69651 15.321L15.3205 5.99743C16.2297 5.11665 16.2297 3.6583 15.3206 2.77749C14.4513 1.93526 13.0704 1.93523 12.201 2.77742L0.972148 13.6557C0.503255 14.11 0.276182 14.7179 0.290934 15.3209C0.276166 15.924 0.503238 16.5319 0.972145 16.9862L12.201 27.8645C13.0704 28.7067 14.4513 28.7067 15.3206 27.8644Z" fill="#7FCF99"/>
<path fill-rule="evenodd" clip-rule="evenodd" d="M37.6389 2.77741C36.7298 3.65822 36.7298 5.11658 37.639 5.99735L47.263 15.3209L37.639 24.6444C36.7298 25.5252 36.7298 26.9835 37.6389 27.8644C38.5082 28.7066 39.8891 28.7066 40.7584 27.8644L51.9873 16.9861C52.4562 16.5319 52.6833 15.924 52.6685 15.3209C52.6833 14.7178 52.4562 14.1099 51.9873 13.6557L40.7584 2.77735C39.8891 1.93516 38.5082 1.93518 37.6389 2.77741Z" fill="#7FCF99"/>
</svg>
