<svg width="20" height="20" viewBox="0 0 20 20" fill="none" xmlns="http://www.w3.org/2000/svg">
<path fill-rule="evenodd" clip-rule="evenodd" d="M12.4439 1.29255C14.163 -0.430851 16.9588 -0.430851 18.6779 1.29255C19.5119 2.12234 19.9715 3.22872 19.9715 4.40745C19.9715 5.58617 19.5119 6.69255 18.6779 7.5266L7.24811 18.9521C7.14173 19.0628 6.9928 19.1223 6.84386 19.1223C6.69492 19.1223 6.54599 19.0585 6.4396 18.9521L1.83535 14.3479L1.24386 18.7223L4.27365 18.3138C4.58854 18.2713 4.8779 18.4926 4.92045 18.8074C4.96301 19.1223 4.74173 19.4117 4.42684 19.4543L0.648114 19.9649C0.622583 19.9691 0.597051 19.9691 0.571519 19.9691C0.422583 19.9691 0.273646 19.9053 0.167263 19.7989C0.0438591 19.6755 -0.0199707 19.4968 0.00556123 19.3181L0.85237 13.0457C0.869391 12.9223 0.92471 12.8074 1.01407 12.7181L12.4439 1.29255ZM14.5843 4.61596L12.6651 2.69681L2.23535 13.1266L4.1545 15.0457L14.5843 4.61596ZM6.84811 17.7351L4.97152 15.8585L15.4013 5.42872L17.2779 7.30532L6.84811 17.7351ZM13.4864 1.89255L18.0779 6.48404C18.5588 5.90106 18.8226 5.17766 18.8226 4.40745C18.8226 3.53511 18.4864 2.71383 17.8694 2.10106C17.2524 1.4883 16.4353 1.14787 15.563 1.14787C14.7971 1.14787 14.0694 1.4117 13.4864 1.89255Z" fill="#4D6D93"/>
</svg>
