<svg width="132" height="132" viewBox="0 0 132 132" fill="none" xmlns="http://www.w3.org/2000/svg">
<g clip-path="url(#clip0)">
<path fill-rule="evenodd" clip-rule="evenodd" d="M0.82106 77.206C1.70958 82.8726 3.27159 88.524 5.60907 93.7817C7.01711 96.9487 9.69635 98.5865 13.024 97.0857C14.7359 96.1276 15.71 94.1757 15.4934 92.2197C15.3506 90.937 14.6239 89.7873 14.1069 88.632C12.9864 86.1299 12.046 83.5481 11.2864 80.9167C8.76954 72.1994 8.28297 62.8838 9.89976 53.9895C12.9561 37.1758 23.3771 22.3493 38.0355 13.7154C53.4096 4.66046 72.4817 3.09003 89.328 9.24536C105.416 15.1239 118.673 27.9692 125.224 43.8046C133.225 63.1453 130.8 85.1768 119.457 102.465C119.196 102.863 119.823 103.217 120.09 102.839C131.666 86.4744 135.112 65.4467 129.066 46.1335C123.591 28.6464 110.579 13.8355 93.961 6.12804C76.632 -1.90936 56.1553 -2.07021 38.8819 5.821C22.2532 13.4182 9.30882 27.7928 3.48167 45.1621C0.0458527 55.4038 -0.859528 66.4904 0.82106 77.206Z" fill="url(#paint0_linear)"/>
<path fill-rule="evenodd" clip-rule="evenodd" d="M21.9999 104.524C22.0123 107.562 19.7837 110.013 17.0218 110C14.2611 109.987 12.0124 107.513 12.0001 104.476C11.9877 101.438 14.2163 98.9867 16.977 99.0001C19.7389 99.0135 21.9876 101.487 21.9999 104.524Z" fill="#C131C5"/>
</g>
<defs>
<linearGradient id="paint0_linear" x1="2.5779e-06" y1="71.8409" x2="99.5634" y2="115.657" gradientUnits="userSpaceOnUse">
<stop stop-color="#B620E0"/>
<stop offset="0.590856" stop-color="#FF9030"/>
<stop offset="1" stop-color="#FF9030" stop-opacity="0"/>
</linearGradient>
<clipPath id="clip0">
<rect width="132" height="110" fill="white"/>
</clipPath>
</defs>
</svg>
