<svg width="36" height="45" viewBox="0 0 36 45" fill="none" xmlns="http://www.w3.org/2000/svg">
<mask id="mask0" mask-type="alpha" maskUnits="userSpaceOnUse" x="0" y="0" width="36" height="45">
<path d="M3 0C1.344 0 0 1.343 0 3.001V42C0 43.656 1.344 45 3 45H33C34.657 45 36 43.656 36 42V10H29C27.343 10 26 8.657 26 7V0H3ZM24.286 17.35H31.38V18.835H25.965V22.015H30.495V23.41H25.965V28H24.286V17.35ZM13.545 17.35H17.325C18.185 17.35 18.938 17.49 19.582 17.77C20.227 18.05 20.768 18.43 21.202 18.91C21.638 19.39 21.965 19.952 22.185 20.597C22.406 21.243 22.514 21.93 22.514 22.66C22.514 23.47 22.393 24.202 22.147 24.858C21.902 25.513 21.555 26.072 21.106 26.537C20.655 27.002 20.111 27.363 19.47 27.617C18.83 27.872 18.115 28 17.325 28H13.545V17.35ZM4.2 17.35H8.67C9.15 17.35 9.592 17.45 9.997 17.65C10.402 17.85 10.75 18.113 11.04 18.437C11.33 18.762 11.558 19.132 11.723 19.547C11.888 19.963 11.97 20.385 11.97 20.815C11.97 21.265 11.893 21.697 11.737 22.112C11.582 22.528 11.365 22.898 11.085 23.223C10.805 23.547 10.467 23.808 10.072 24.002C9.678 24.197 9.24 24.296 8.76 24.296H5.88V28H4.2V17.35ZM15.225 18.835V26.515H17.325C17.885 26.515 18.383 26.417 18.817 26.222C19.253 26.027 19.617 25.757 19.913 25.412C20.207 25.068 20.43 24.66 20.58 24.189C20.731 23.719 20.804 23.21 20.804 22.66C20.804 22.1 20.728 21.585 20.572 21.115C20.418 20.645 20.191 20.243 19.89 19.907C19.589 19.572 19.225 19.31 18.795 19.12C18.365 18.93 17.875 18.835 17.325 18.835H15.225ZM5.88 18.835V22.811H8.654C8.895 22.811 9.113 22.76 9.308 22.66C9.502 22.56 9.67 22.42 9.81 22.24C9.95 22.06 10.06 21.85 10.14 21.61C10.22 21.37 10.26 21.105 10.26 20.815C10.26 20.515 10.215 20.245 10.125 20.005C10.035 19.765 9.91 19.557 9.75 19.382C9.589 19.208 9.408 19.073 9.202 18.977C8.997 18.883 8.785 18.835 8.565 18.835H5.88Z" fill="white"/>
</mask>
<g mask="url(#mask0)">
<path fill-rule="evenodd" clip-rule="evenodd" d="M3 0C1.344 0 0 1.343 0 3.001V42C0 43.656 1.344 45 3 45H33C34.657 45 36 43.656 36 42V10H29C27.343 10 26 8.657 26 7V0H3ZM24.286 17.35H31.38V18.835H25.965V22.015H30.495V23.41H25.965V28H24.286V17.35ZM13.545 17.35H17.325C18.185 17.35 18.938 17.49 19.582 17.77C20.227 18.05 20.768 18.43 21.202 18.91C21.638 19.39 21.965 19.952 22.185 20.597C22.406 21.243 22.514 21.93 22.514 22.66C22.514 23.47 22.393 24.202 22.147 24.858C21.902 25.513 21.555 26.072 21.106 26.537C20.655 27.002 20.111 27.363 19.47 27.617C18.83 27.872 18.115 28 17.325 28H13.545V17.35ZM4.2 17.35H8.67C9.15 17.35 9.592 17.45 9.997 17.65C10.402 17.85 10.75 18.113 11.04 18.437C11.33 18.762 11.558 19.132 11.723 19.547C11.888 19.963 11.97 20.385 11.97 20.815C11.97 21.265 11.893 21.697 11.737 22.112C11.582 22.528 11.365 22.898 11.085 23.223C10.805 23.547 10.467 23.808 10.072 24.002C9.678 24.197 9.24 24.296 8.76 24.296H5.88V28H4.2V17.35ZM15.225 18.835V26.515H17.325C17.885 26.515 18.383 26.417 18.817 26.222C19.253 26.027 19.617 25.757 19.913 25.412C20.207 25.068 20.43 24.66 20.58 24.189C20.731 23.719 20.804 23.21 20.804 22.66C20.804 22.1 20.728 21.585 20.572 21.115C20.418 20.645 20.191 20.243 19.89 19.907C19.589 19.572 19.225 19.31 18.795 19.12C18.365 18.93 17.875 18.835 17.325 18.835H15.225ZM5.88 18.835V22.811H8.654C8.895 22.811 9.113 22.76 9.308 22.66C9.502 22.56 9.67 22.42 9.81 22.24C9.95 22.06 10.06 21.85 10.14 21.61C10.22 21.37 10.26 21.105 10.26 20.815C10.26 20.515 10.215 20.245 10.125 20.005C10.035 19.765 9.91 19.557 9.75 19.382C9.589 19.208 9.408 19.073 9.202 18.977C8.997 18.883 8.785 18.835 8.565 18.835H5.88Z" fill="url(#paint0_linear)"/>
</g>
<path fill-rule="evenodd" clip-rule="evenodd" d="M27 0.000244141L36 9.00024H29C27.896 9.00024 27 8.10424 27 7.00024V0.000244141Z" fill="#FFD042"/>
<defs>
<linearGradient id="paint0_linear" x1="18" y1="0" x2="18" y2="45" gradientUnits="userSpaceOnUse">
<stop stop-color="#FFCF42"/>
<stop offset="1" stop-color="#EF540E"/>
</linearGradient>
</defs>
</svg>
