<svg width="36" height="45" viewBox="0 0 36 45" fill="none" xmlns="http://www.w3.org/2000/svg">
<mask id="mask0" mask-type="alpha" maskUnits="userSpaceOnUse" x="0" y="0" width="36" height="45">
<path d="M3 0C1.344 0 0 1.343 0 3.001V42C0 43.656 1.344 45 3 45H33C34.657 45 36 43.656 36 42V10H29C27.343 10 26 8.657 26 7V0H3ZM24.075 17.35H28.71C29.191 17.35 29.633 17.45 30.038 17.65C30.443 17.85 30.79 18.113 31.08 18.437C31.37 18.762 31.598 19.132 31.763 19.547C31.928 19.963 32.009 20.385 32.009 20.815C32.009 21.175 31.96 21.52 31.86 21.85C31.76 22.18 31.62 22.485 31.441 22.765C31.26 23.045 31.04 23.288 30.78 23.493C30.52 23.697 30.236 23.85 29.925 23.951L32.43 28H30.525L28.215 24.296H25.755V28H24.075V17.35ZM17.085 17.35H18.555L22.755 28H20.985L19.86 25.105H15.75L14.64 28H12.855L17.085 17.35ZM4.2 17.35H8.835C9.315 17.35 9.757 17.45 10.163 17.65C10.568 17.85 10.915 18.113 11.205 18.437C11.495 18.762 11.723 19.132 11.888 19.547C12.053 19.963 12.135 20.385 12.135 20.815C12.135 21.175 12.085 21.52 11.985 21.85C11.885 22.18 11.745 22.485 11.565 22.765C11.385 23.045 11.165 23.288 10.904 23.493C10.645 23.697 10.36 23.85 10.049 23.951L12.555 28H10.65L8.339 24.296H5.88V28H4.2V17.35ZM25.755 18.835V22.811H28.696C28.935 22.811 29.152 22.757 29.348 22.652C29.543 22.548 29.71 22.403 29.849 22.217C29.99 22.032 30.1 21.82 30.18 21.58C30.26 21.34 30.299 21.085 30.299 20.815C30.299 20.545 30.253 20.29 30.157 20.05C30.063 19.81 29.938 19.6 29.782 19.42C29.628 19.24 29.447 19.097 29.242 18.993C29.037 18.887 28.825 18.835 28.606 18.835H25.755ZM5.88 18.835V22.811H8.82C9.06 22.811 9.277 22.757 9.473 22.652C9.668 22.548 9.835 22.403 9.975 22.217C10.115 22.032 10.225 21.82 10.305 21.58C10.385 21.34 10.425 21.085 10.425 20.815C10.425 20.545 10.377 20.29 10.283 20.05C10.187 19.81 10.063 19.6 9.908 19.42C9.752 19.24 9.572 19.097 9.368 18.993C9.163 18.887 8.951 18.835 8.73 18.835H5.88ZM16.05 23.86H19.53L17.82 19.285L16.05 23.86Z" fill="white"/>
</mask>
<g mask="url(#mask0)">
<path fill-rule="evenodd" clip-rule="evenodd" d="M3 0C1.344 0 0 1.343 0 3.001V42C0 43.656 1.344 45 3 45H33C34.657 45 36 43.656 36 42V10H29C27.343 10 26 8.657 26 7V0H3ZM24.075 17.35H28.71C29.191 17.35 29.633 17.45 30.038 17.65C30.443 17.85 30.79 18.113 31.08 18.437C31.37 18.762 31.598 19.132 31.763 19.547C31.928 19.963 32.009 20.385 32.009 20.815C32.009 21.175 31.96 21.52 31.86 21.85C31.76 22.18 31.62 22.485 31.441 22.765C31.26 23.045 31.04 23.288 30.78 23.493C30.52 23.697 30.236 23.85 29.925 23.951L32.43 28H30.525L28.215 24.296H25.755V28H24.075V17.35ZM17.085 17.35H18.555L22.755 28H20.985L19.86 25.105H15.75L14.64 28H12.855L17.085 17.35ZM4.2 17.35H8.835C9.315 17.35 9.757 17.45 10.163 17.65C10.568 17.85 10.915 18.113 11.205 18.437C11.495 18.762 11.723 19.132 11.888 19.547C12.053 19.963 12.135 20.385 12.135 20.815C12.135 21.175 12.085 21.52 11.985 21.85C11.885 22.18 11.745 22.485 11.565 22.765C11.385 23.045 11.165 23.288 10.904 23.493C10.645 23.697 10.36 23.85 10.049 23.951L12.555 28H10.65L8.339 24.296H5.88V28H4.2V17.35ZM25.755 18.835V22.811H28.696C28.935 22.811 29.152 22.757 29.348 22.652C29.543 22.548 29.71 22.403 29.849 22.217C29.99 22.032 30.1 21.82 30.18 21.58C30.26 21.34 30.299 21.085 30.299 20.815C30.299 20.545 30.253 20.29 30.157 20.05C30.063 19.81 29.938 19.6 29.782 19.42C29.628 19.24 29.447 19.097 29.242 18.993C29.037 18.887 28.825 18.835 28.606 18.835H25.755ZM5.88 18.835V22.811H8.82C9.06 22.811 9.277 22.757 9.473 22.652C9.668 22.548 9.835 22.403 9.975 22.217C10.115 22.032 10.225 21.82 10.305 21.58C10.385 21.34 10.425 21.085 10.425 20.815C10.425 20.545 10.377 20.29 10.283 20.05C10.187 19.81 10.063 19.6 9.908 19.42C9.752 19.24 9.572 19.097 9.368 18.993C9.163 18.887 8.951 18.835 8.73 18.835H5.88ZM16.05 23.86H19.53L17.82 19.285L16.05 23.86Z" fill="url(#paint0_linear)"/>
</g>
<path fill-rule="evenodd" clip-rule="evenodd" d="M27 0.000244141L36 9.00024H29C27.896 9.00024 27 8.10424 27 7.00024V0.000244141Z" fill="#80DFD2"/>
<defs>
<linearGradient id="paint0_linear" x1="18" y1="0" x2="18" y2="45" gradientUnits="userSpaceOnUse">
<stop stop-color="#80DFD1"/>
<stop offset="1" stop-color="#7ECF99"/>
</linearGradient>
</defs>
</svg>
