<svg width="24" height="19" viewBox="0 0 24 19" fill="none" xmlns="http://www.w3.org/2000/svg">
<path d="M22.9884 2.89253C22.5183 2.39923 21.8692 2.10774 21.1306 2.10774H17.4149V2.06289C17.4149 1.50232 17.1911 0.964178 16.8106 0.605414C16.4301 0.224228 15.9153 0 15.3557 0H8.64071C8.05874 0 7.54393 0.224228 7.16341 0.605414C6.7829 0.986601 6.55907 1.50232 6.55907 2.06289V2.10774H2.86583C2.12718 2.10774 1.47807 2.39923 1.00802 2.89253C0.537975 3.36341 0.224609 4.0361 0.224609 4.75362V15.9202C0.224609 16.6601 0.515591 17.3104 1.00802 17.7812C1.47807 18.2521 2.14957 18.566 2.86583 18.566H21.1306C21.8692 18.566 22.5183 18.2745 22.9884 17.7812C23.4584 17.3104 23.7718 16.6377 23.7718 15.9202V4.75362C23.7718 4.01367 23.4808 3.36341 22.9884 2.89253ZM22.6079 15.9202H22.5855C22.5855 16.3238 22.4288 16.6825 22.1602 16.9516C21.8916 17.2207 21.5335 17.3776 21.1306 17.3776H2.86583C2.46293 17.3776 2.1048 17.2207 1.8362 16.9516C1.5676 16.6825 1.41092 16.3238 1.41092 15.9202V4.75362C1.41092 4.35001 1.5676 3.99125 1.8362 3.72218C2.1048 3.4531 2.46293 3.29614 2.86583 3.29614H7.1858C7.52155 3.29614 7.79014 3.02707 7.79014 2.69073V2.04047C7.79014 1.79382 7.87968 1.56959 8.03636 1.41263C8.19304 1.25567 8.41688 1.16598 8.66309 1.16598H15.3557C15.6019 1.16598 15.8257 1.25567 15.9824 1.41263C16.1391 1.56959 16.2286 1.79382 16.2286 2.04047V2.69073C16.2286 3.02707 16.4972 3.29614 16.833 3.29614H21.1529C21.5558 3.29614 21.914 3.4531 22.1826 3.72218C22.4512 3.99125 22.6079 4.35001 22.6079 4.75362V15.9202Z" fill="black"/>
<path d="M11.9984 4.98096C10.4963 4.98096 9.12681 5.59946 8.15488 6.57138C7.16086 7.5654 6.56445 8.91285 6.56445 10.4149C6.56445 11.917 7.18295 13.2865 8.15488 14.2585C9.1489 15.2525 10.4963 15.8489 11.9984 15.8489C13.5005 15.8489 14.87 15.2304 15.8419 14.2585C16.836 13.2644 17.4324 11.917 17.4324 10.4149C17.4324 8.91285 16.8139 7.54331 15.8419 6.57138C14.87 5.59946 13.5005 4.98096 11.9984 4.98096ZM15.0026 13.4412C14.2294 14.1922 13.1691 14.6782 11.9984 14.6782C10.8277 14.6782 9.7674 14.1922 8.99427 13.4412C8.22115 12.668 7.75727 11.6077 7.75727 10.437C7.75727 9.26628 8.24324 8.20599 8.99427 7.43287C9.7674 6.65974 10.8277 6.19587 11.9984 6.19587C13.1691 6.19587 14.2294 6.68183 15.0026 7.43287C15.7757 8.20599 16.2396 9.26628 16.2396 10.437C16.2616 11.6077 15.7757 12.668 15.0026 13.4412Z" fill="black"/>
<path d="M20.3752 7.24511C21.0005 7.24511 21.5073 6.73826 21.5073 6.11303C21.5073 5.4878 21.0005 4.98096 20.3752 4.98096C19.75 4.98096 19.2432 5.4878 19.2432 6.11303C19.2432 6.73826 19.75 7.24511 20.3752 7.24511Z" fill="black"/>
</svg>
