<svg width="28" height="27" viewBox="0 0 28 27" fill="none" xmlns="http://www.w3.org/2000/svg">
<g opacity="0.9">
<path d="M27.1517 12.8951C26.7068 12.8951 26.3508 13.2585 26.3508 13.7127V21.1505C26.3508 23.1735 24.7373 24.8149 22.7619 24.8149H5.19068C3.20932 24.8149 1.60169 23.1674 1.60169 21.1505V13.5916C1.60169 13.1373 1.24576 12.7739 0.800847 12.7739C0.355932 12.7739 0 13.1373 0 13.5916V21.1505C0 24.076 2.33136 26.4502 5.19068 26.4502H22.7619C25.6271 26.4502 27.9525 24.0699 27.9525 21.1505V13.7127C27.9525 13.2645 27.5966 12.8951 27.1517 12.8951Z" fill="#313747"/>
<path d="M13.4126 19.9573C13.5669 20.1147 13.7745 20.1995 13.9762 20.1995C14.1779 20.1995 14.3855 20.1208 14.5397 19.9573L19.6296 14.7605C19.944 14.4395 19.944 13.9247 19.6296 13.6036C19.3152 13.2826 18.8109 13.2826 18.4965 13.6036L14.777 17.4073V0.817672C14.777 0.36341 14.4211 0 13.9762 0C13.5313 0 13.1753 0.36341 13.1753 0.817672V17.4073L9.44991 13.6036C9.1355 13.2826 8.63127 13.2826 8.31686 13.6036C8.00245 13.9247 8.00245 14.4395 8.31686 14.7605L13.4126 19.9573Z" fill="#313747"/>
</g>
</svg>
