<svg width="45" height="30" viewBox="0 0 45 30" fill="none" xmlns="http://www.w3.org/2000/svg">
<path fill-rule="evenodd" clip-rule="evenodd" d="M1.22334 24.5677C1.22334 24.5677 6.04624 23.9464 8.42423 20.0192C10.8022 16.092 17.2297 8.4845 17.2297 14.2519C17.2297 20.0192 17.3697 21.653 20.3676 20.0192C23.3656 18.3854 26.9543 13.8703 31.4506 7.48769C35.9468 1.10506 41.7571 -3.38681 43.7721 3.3409C45.7871 10.0686 44.1165 22.7089 42.847 24.5677C41.5774 26.4266 38.7613 29.3021 28.6753 29.3021C18.5893 29.3021 3.67002 28.3485 1.22334 26.6502C-1.22334 24.9518 1.22334 24.5677 1.22334 24.5677Z" fill="#00AEFF"/>
<path fill-rule="evenodd" clip-rule="evenodd" d="M22.3905 10.0007C24.293 10.0007 25.8352 8.50816 25.8352 6.66707C25.8352 4.82599 24.293 3.3335 22.3905 3.3335C20.488 3.3335 18.9458 4.82599 18.9458 6.66707C18.9458 8.50816 20.488 10.0007 22.3905 10.0007Z" fill="#00AEFF"/>
</svg>
