<svg width="104" height="104" viewBox="0 0 104 104" fill="none" xmlns="http://www.w3.org/2000/svg">
<path fill-rule="evenodd" clip-rule="evenodd" d="M97.1488 53.7219C97.5547 49.9535 97.5323 46.0805 96.9522 42.3273C96.6028 40.0664 95.1885 38.5662 92.8282 38.9596C91.5822 39.2808 90.6329 40.3616 90.4358 41.6471C90.307 42.4902 90.5702 43.3475 90.6998 44.1728C90.9809 45.9604 91.1346 47.7682 91.1655 49.577C91.2681 55.5693 89.9848 61.599 87.4435 67.0029C82.6396 77.2183 73.5185 84.9153 62.7757 87.9398C51.5085 91.1117 39.1814 88.8778 29.5811 82.0895C20.4131 75.6065 14.2248 65.1563 12.787 53.9351C11.0311 40.23 16.3271 26.5764 26.4516 17.4641C26.6844 17.2544 26.3483 16.9222 26.1148 17.1181C16.0011 25.601 10.2308 38.4405 10.7555 51.7964C11.2304 63.8893 16.9286 75.5529 26.1193 83.2934C35.7035 91.3652 48.623 94.9427 60.8923 92.8361C72.7038 90.8078 83.3432 83.8275 89.994 73.7275C93.9155 67.7722 96.3813 60.848 97.1488 53.7219Z" fill="url(#paint0_linear)"/>
<path fill-rule="evenodd" clip-rule="evenodd" d="M87.9732 32.7542C88.4639 30.8872 90.3462 29.7791 92.1778 30.2795C94.0085 30.7796 95.0953 32.6989 94.6047 34.566C94.114 36.433 92.2316 37.5411 90.4009 37.0409C88.5694 36.5406 87.4826 34.6213 87.9732 32.7542Z" fill="#C131C5"/>
<defs>
<linearGradient id="paint0_linear" x1="125.049" y1="27.5148" x2="77.6998" y2="-30.1222" gradientUnits="userSpaceOnUse">
<stop stop-color="#B620E0"/>
<stop offset="0.590856" stop-color="#FF9030"/>
<stop offset="1" stop-color="#FF9030" stop-opacity="0.01"/>
</linearGradient>
</defs>
</svg>
