<svg width="23" height="23" viewBox="0 0 23 23" fill="none" xmlns="http://www.w3.org/2000/svg">
<path id="Shape" fill-rule="evenodd" clip-rule="evenodd" d="M17.2067 16.2377L22.796 21.8271C23.0612 22.0922 23.0612 22.5308 22.796 22.796C22.6634 22.9337 22.4849 23 22.3115 23C22.1381 23 21.9596 22.9286 21.8271 22.796L16.2377 17.2067C14.514 18.706 12.265 19.6137 9.80687 19.6137C4.40111 19.6137 0 15.2126 0 9.80687C0 4.40111 4.39601 0 9.80687 0C15.2126 0 19.6137 4.39601 19.6137 9.80687C19.6137 12.265 18.706 14.514 17.2067 16.2377ZM9.80177 1.37694C5.15588 1.37694 1.37184 5.15588 1.37184 9.80687C1.37184 14.4579 5.15588 18.2419 9.80177 18.2419C14.4528 18.2419 18.2317 14.4528 18.2317 9.80687C18.2317 5.16098 14.4528 1.37694 9.80177 1.37694Z" fill="#4D6D93"/>
</svg>
