<svg width="55" height="40" viewBox="0 0 55 40" fill="none" xmlns="http://www.w3.org/2000/svg">
<path fill-rule="evenodd" clip-rule="evenodd" d="M47.1429 15.9986C47.1429 16.4664 47.122 16.9294 47.0813 17.3867C51.6725 18.8277 55 23.0842 55 28.1109C55 34.3226 49.9188 39.3581 43.6508 39.3581C43.6476 39.3581 43.6445 39.3581 43.6413 39.3581H15.7143C7.03553 39.3581 0 32.3858 0 23.7851C0 15.1843 7.03553 8.21205 15.7143 8.21205C16.4015 8.21205 17.0784 8.25577 17.7424 8.34056C20.4405 3.61499 25.5587 0.425537 31.4286 0.425537C40.1073 0.425537 47.1429 7.39782 47.1429 15.9986Z" fill="url(#paint0_linear)"/>
<path d="M28.9561 14.8597C28.8105 14.7163 28.6146 14.6391 28.4242 14.6391C28.2338 14.6391 28.0378 14.7108 27.8922 14.8597L23.0878 19.5919C22.791 19.8842 22.791 20.353 23.0878 20.6453C23.3845 20.9377 23.8605 20.9377 24.1573 20.6453L27.6682 17.1817V28.108C27.6682 28.5216 28.0042 28.8525 28.4242 28.8525C28.8441 28.8525 29.1801 28.5216 29.1801 28.108V17.1817L32.6967 20.6453C32.9934 20.9377 33.4694 20.9377 33.7662 20.6453C34.063 20.353 34.063 19.8842 33.7662 19.5919L28.9561 14.8597Z" fill="white"/>
<defs>
<linearGradient id="paint0_linear" x1="27.5" y1="0.425537" x2="27.5" y2="39.3581" gradientUnits="userSpaceOnUse">
<stop stop-color="#7CC3E8"/>
<stop offset="1" stop-color="#019EF7"/>
</linearGradient>
</defs>
</svg>
