<svg width="68" height="76" viewBox="0 0 68 76" fill="none" xmlns="http://www.w3.org/2000/svg">
<path fill-rule="evenodd" clip-rule="evenodd" d="M52.6152 19.5001C52.6152 30.2695 43.8848 39 33.1153 39C22.3456 39 13.6152 30.2695 13.6152 19.5001C13.6152 8.73048 22.3456 0 33.1153 0C43.8848 0 52.6152 8.73048 52.6152 19.5001Z" fill="#4D6D93"/>
<path fill-rule="evenodd" clip-rule="evenodd" d="M67.0485 53.2779C61.619 42.5634 52.7547 40.9926 50.2061 40.2632C47.6576 39.534 46.3281 40.7681 46.3281 40.7681C42.0071 43.7941 37.7582 44.7409 34.0417 44.6797C30.3253 44.7409 26.0764 43.7941 21.7555 40.7681C21.7555 40.7681 20.4258 39.534 17.8775 40.2632C15.3288 40.9926 6.46459 42.5634 1.03508 53.2779C1.03508 53.2779 -0.0729293 54.9609 1.31208 57.1487C2.69709 59.3365 12.5327 74.9818 34.0417 75.2654C55.5509 74.9818 65.3864 59.3365 66.7715 57.1487C68.1565 54.9609 67.0485 53.2779 67.0485 53.2779Z" fill="#4D6D93"/>
</svg>
