<svg width="11" height="11" viewBox="0 0 11 11" fill="none" xmlns="http://www.w3.org/2000/svg">
<path d="M10.7988 0.20115C10.5306 -0.06705 10.1004 -0.06705 9.83218 0.20115L5.5 4.53284L1.16782 0.20115C0.899586 -0.06705 0.469404 -0.06705 0.201173 0.20115C-0.0670577 0.46935 -0.0670577 0.899483 0.201173 1.16768L4.53336 5.49937L0.201173 9.83105C-0.0670577 10.0993 -0.0670577 10.5294 0.201173 10.7976C0.332758 10.9292 0.509892 11 0.681964 11C0.854037 11 1.03117 10.9342 1.16276 10.7976L5.49494 6.4659L9.82712 10.7976C9.95871 10.9292 10.1358 11 10.3079 11C10.485 11 10.6571 10.9342 10.7887 10.7976C11.0569 10.5294 11.0569 10.0993 10.7887 9.83105L6.46664 5.49937L10.7988 1.16768C11.0671 0.899483 11.0671 0.46935 10.7988 0.20115Z" fill="#4D6D93"/>
</svg>
