<svg width="36" height="45" viewBox="0 0 36 45" fill="none" xmlns="http://www.w3.org/2000/svg">
<path fill-rule="evenodd" clip-rule="evenodd" d="M26 0V7C26 8.65685 27.3431 10 29 10H36V42C36 43.6569 34.6569 45 33 45H3C1.34315 45 0 43.6569 0 42V3C0 1.34315 1.34315 0 3 0H26ZM7.465 26.71V28H15.91V26.515H9.58L15.895 18.64V17.35H7.615V18.835H13.93L7.465 26.71ZM17.635 28H19.315V17.35H17.635V28ZM21.715 28H23.395V24.295H26.275C26.755 24.295 27.1925 24.1975 27.5875 24.0025C27.9825 23.8075 28.32 23.5475 28.6 23.2225C28.88 22.8975 29.0975 22.5275 29.2525 22.1125C29.4075 21.6975 29.485 21.265 29.485 20.815C29.485 20.385 29.4025 19.9625 29.2375 19.5475C29.0725 19.1325 28.845 18.7625 28.555 18.4375C28.265 18.1125 27.9175 17.85 27.5125 17.65C27.1075 17.45 26.665 17.35 26.185 17.35H21.715V28ZM23.395 22.81V18.835H26.08C26.3 18.835 26.5125 18.8825 26.7175 18.9775C26.9225 19.0725 27.105 19.2075 27.265 19.3825C27.425 19.5575 27.55 19.765 27.64 20.005C27.73 20.245 27.775 20.515 27.775 20.815C27.775 21.105 27.735 21.37 27.655 21.61C27.575 21.85 27.465 22.06 27.325 22.24C27.185 22.42 27.0175 22.56 26.8225 22.66C26.6275 22.76 26.41 22.81 26.17 22.81H23.395Z" fill="url(#paint0_linear)"/>
<path fill-rule="evenodd" clip-rule="evenodd" d="M27 0L36 9H29C27.8954 9 27 8.10457 27 7V0Z" fill="#86C6EA"/>
<defs>
<linearGradient id="paint0_linear" x1="18" y1="0" x2="18" y2="45" gradientUnits="userSpaceOnUse">
<stop stop-color="#7CCBE8"/>
<stop offset="1" stop-color="#2172F6"/>
</linearGradient>
</defs>
</svg>
